<?xml version="1.0" encoding="utf-8"?>
<!-- Generator: Adobe Illustrator 27.1.1, SVG Export Plug-In . SVG Version: 6.00 Build 0)  -->
<svg version="1.1" id="Layer_1" xmlns="http://www.w3.org/2000/svg" xmlns:xlink="http://www.w3.org/1999/xlink" x="0px" y="0px"
	 viewBox="0 0 393.9 134.7" style="enable-background:new 0 0 393.9 134.7;" xml:space="preserve">
<style type="text/css">
	.st0{fill:#FFD400;}
</style>
<g id="Layer_2_00000122717222539242171500000003589964283930606482_">
	<g id="Layer_1-2">
		<path class="st0" d="M113.1,27.2L69.5,2.1c-4.8-2.8-12.5-2.8-17.3,0L8.7,27.2C3.9,30,0,36.7,0,42.2v50.3c0,5.5,3.9,12.2,8.7,15
			l43.5,25.1c4.8,2.8,12.6,2.8,17.3,0l43.6-25.1c4.8-2.8,8.7-9.5,8.7-15V42.2C121.7,36.7,117.8,30,113.1,27.2z M19,66.1V43.2
			l19.8-11.5l19.9,11.5v22.9L38.8,77.6L19,66.1z M81.3,105.2l-19.9,11.5l-19.9-11.5V82.3l19.9-11.5l19.9,11.5L81.3,105.2z M104,66.1
			L84.1,77.6L64.2,66.1V43.2l19.9-11.5l19.9,11.5L104,66.1z"/>
	</g>
</g>
<path d="M171.6,1.9H182l9.3,12.9h0.1V1.9h8.8v23.2h-10l-9.7-13h-0.1v13h-8.8V1.9z M226.5,6.7c9.1,0,13.2,3.1,13.2,9.6
	c0,6.6-4,9.6-13.2,9.6c-9.2,0-13.2-3.1-13.2-9.6C213.4,9.7,217.3,6.7,226.5,6.7z M226.5,20.6c3.3,0,4.6-1.5,4.6-4.4
	c0-2.8-1.4-4.3-4.6-4.3c-3.2,0-4.6,1.5-4.6,4.3C221.9,19.1,223.3,20.6,226.5,20.6z M269.1,23.3L269.1,23.3c-1.5,1.7-3.7,2.6-7.4,2.6
	c-5.3,0-10.1-2.9-10.1-9.5s4.8-9.5,10.1-9.5c3.3,0,5.7,0.8,7.1,2.5h0.1V1.1h8.1v24h-7.9V23.3z M264.3,12.3c-3,0-4.4,1.7-4.4,4
	c0,2.3,1.3,4,4.5,4c3.1,0,4.5-1.5,4.5-4C268.8,13.9,267.5,12.3,264.3,12.3z M315.9,19.8c-0.6,1.9-2,3.4-4.1,4.4
	c-2.1,1-4.8,1.6-8.6,1.6c-8.5,0-13.4-3.1-13.4-9.6c0-6.1,4.7-9.6,12.7-9.6c7.9,0,13.6,2.6,13.5,11.5h-17.9c0,1.3,1.3,3.2,4.9,3.2
	c2.1,0,3.3-0.4,4.2-1.6H315.9z M307.8,14.1c-0.2-1.9-2-3.1-4.8-3.1c-2.9,0-4.5,0.9-4.9,3.1H307.8z M342,1.9h9.2V16
	c0,5.9-1.6,9.9-11.4,9.9c-8.9,0-12.5-2.2-12.5-10.5h9.2c0,1.7,0,2.9,0.4,3.7c0.4,0.8,1,1.2,2.3,1.2c1.9,0,2.8-1,2.8-3.6V1.9z
	 M370.3,15.3c-4.5-0.7-6.3-3.3-6.3-6.5c0-6,5.9-7.6,13.4-7.6c10.3,0,14.6,2.7,14.9,7.6h-10.7c0-0.9-0.5-1.5-1.4-1.9
	c-0.8-0.4-1.9-0.5-2.9-0.5c-2.7,0-3.7,0.7-3.7,1.7c0,0.6,0.3,1.1,1.2,1.2l11,1.6c4.6,0.7,7.5,2.8,7.5,6.8c0,5.7-4.6,8.3-14.9,8.3
	c-7,0-14.8-1-14.8-7.8h11c0,0.7,0.4,1.3,1,1.7c0.7,0.3,1.7,0.5,3.1,0.5c2.9,0,3.6-0.7,3.6-1.9c0-0.7-0.4-1.3-1.7-1.6L370.3,15.3z"/>
<path d="M171.6,55.8h12.9l3.8,13.5h0.1l3.8-13.5h12.9V79h-8.3V62.4h-0.1L191.8,79h-7L180,62.4h-0.1V79h-8.3V55.8z M227.5,79.8
	c0.6,0.1,1.1,0.1,2,0.1c1.7,0,2.3-0.1,3-1.4l0.5-1l-8.3-16.3h8.5l3.9,9.1l3.9-9.1h8.5l-10,20.7c-1.3,2.5-2.2,3.5-6.6,3.5
	c-1.8,0-4-0.2-5.5-0.3V79.8z M274.5,69.2c-4.5-0.7-6.3-3.3-6.3-6.5c0-6,5.9-7.6,13.4-7.6c10.3,0,14.6,2.7,14.9,7.6h-10.7
	c0-0.9-0.5-1.5-1.4-1.9c-0.8-0.4-1.9-0.5-2.9-0.5c-2.7,0-3.7,0.7-3.7,1.7c0,0.6,0.3,1.1,1.2,1.2l11,1.6c4.6,0.7,7.5,2.8,7.5,6.8
	c0,5.7-4.6,8.3-14.9,8.3c-7,0-14.8-1-14.8-7.8h11c0,0.7,0.4,1.3,1,1.7c0.7,0.3,1.7,0.5,3.1,0.5c2.9,0,3.6-0.7,3.6-1.9
	c0-0.7-0.4-1.3-1.7-1.6L274.5,69.2z M340.2,79.2c-0.7,0.2-1.7,0.3-2.9,0.5c-1.2,0.1-2.6,0.2-4,0.2c-5.6,0-15.9-0.4-15.9-12.4
	c0-12,10.3-12.4,15.9-12.4c5.6,0,15.9,0.4,15.9,12.4c0,4.4-1.3,7.2-3.4,9.1l3.4,3.1l-3.8,4.3L340.2,79.2z M336.7,68.5l2.2,2
	c0.3-0.8,0.5-1.9,0.5-3.1c0-4.7-2.3-6.6-6.1-6.6c-3.8,0-6.1,1.9-6.1,6.6c0,4.7,2.3,6.6,6.1,6.6c0.4,0,0.7,0,1.1-0.1l-1.5-1.4
	L336.7,68.5z M370.5,55.8h9.2v17h14.2V79h-23.4V55.8z"/>
<path d="M171.6,109.9h24.7v5.7h-15.5v3.1h14.4v5.7h-14.4v3.1h15.5v5.7h-24.7V109.9z M231.3,133.1l8.2-9.3l-7.5-8.5h9.9l3.2,4.8
	l3.2-4.8h9.9l-7.6,8.5l8.3,9.3h-10.3l-3.5-5l-3.5,5H231.3z M295.4,120.8c0.5-2.5,1.5-3.9,3.5-4.9c2-0.9,4.9-1.2,9.2-1.2
	c8.3,0,11.6,1.9,11.6,7.1v8.6c0,1.4,0.4,2.1,0.7,2.8h-8.3c-0.2-0.5-0.3-1.1-0.3-1.8c-1.8,1.7-4.6,2.5-8.9,2.5c-5.5,0-8.9-1.5-8.9-6
	c0-3.2,2.3-5.3,8.3-5.6l6.9-0.3c1.7-0.1,2.2-0.5,2.2-1.5c0-1.2-1.4-1.7-3.8-1.7c-1.8,0-3.7,0.3-4.1,2H295.4z M311.6,125
	c-1.4,0.3-3.7,0.5-6.6,0.7c-1.5,0.1-2.2,0.6-2.2,1.8c0,1.3,1,2,3,2c2.7,0,5.8-0.7,5.8-3.7V125z M358.2,115.4h7.9v2.4h0.1
	c1.3-1.7,3.2-2.9,6.6-2.9c3.5,0,4.9,1.2,5.9,3c1.1-1.7,3.2-3,6.5-3c3.9,0,7,1.7,7,6v12.3h-8.1v-10c0-1.8-0.7-2.4-2.2-2.4
	c-1.7,0-2.8,0.8-2.8,3v9.4h-7.9v-10c0-1.8-0.7-2.4-2.2-2.4c-1.7,0-2.8,0.8-2.8,3v9.4h-8.1V115.4z"/>
</svg>
